Title                            : Safe House
Year                             : 2012
Genre                            : Action | Crime | Mystery
iMDB URL                         : http://www.imdb.com/title/tt1599348/

Complete name                    : Safe.House.2012.BRRIP.720P.H264-ZEKTORM.mp4
Format                           : MPEG-4
Format profile                   : Base Media
Codec ID                         : isom
File size                        : 2.41 GiB
Duration                         : 1h 54mn
Overall bit rate                 : 2999 Kbps
Subtitles                        : English (Format: srt)

Video
ID                               : 1
Format                           : AVC
Format/Info                      : Advanced Video Codec
Format profile                   : High@L4.0
Format settings, CABAC           : Yes
Format settings, ReFrames        : 12 frames
Codec ID                         : avc1
Codec ID/Info                    : Advanced Video Coding
Duration                         : 1h 54mn
Bit rate mode                    : Variable
Bit rate                         : 2552 Kbps
Width                            : 1280 pixels
Height                           : 528 pixels
Display aspect ratio             : 2.424
Frame rate mode                  : Constant
Frame rate                       : 23.976 fps
Resolution                       : 24 bits
Colorimetry                      : 4:2:0
Scan type                        : Progressive
Bits/(Pixel*Frame)               : 0.157
Stream size                      : 2.05 GiB (85%)
Title                            : Video
Writing library                  : x264

Audio
ID                               : 2
Format                           : AAC
Format/Info                      : Advanced Audio Codec
Format version                   : Version 4
Format profile                   : LC
Format settings, SBR             : No
Codec ID                         : 40
Duration                         : 1h 54mn
Bit rate mode                    : Variable
Bit rate                         : 443 Kbps
Maximum bit rate                 : 555 Kbps
Channel(s)                       : 6 channels
Channel positions                : Front: L C R, Rear: L R, LFE
Sampling rate                    : 48.0 KHz
Resolution                       : 16 bits
Stream size                      : 364 MiB (15%)
Language                         : English


Screenshots:

[img]http://img11.imageshack.us/img11/4610/snapsh1.png[/img]

[img]http://img441.imageshack.us/img441/4287/snapsh2.png[/img]
